A priest disobeys church law to track down the vampires who kidnapped his niece.

Director:
Scott Charles Stewart
Writers:
Cory Goodman, Min-Woo Hyung (graphic novel series "Priest")
Stars:
Paul Bettany, Cam Gigandet and Maggie 

Media info:

General
Complete name                    : E:\torrent2\Priest.2011.BluRay rip.MKV.1080p.AVC.DTS-5.1-ACB-Team\Priest.2011.BluRay rip.MKV.1080p.AVC.DTS-5.1-ACB-Team.mkv
Format                           : Matroska
File size                        : 9.90 GiB
Duration                         : 1h 27mn
Overall bit rate                 : 16.2 Mbps
Movie name                       : movie
Encoded date                     : UTC 2011-08-04 05:38:39
Writing application              : mkvmerge v3.2.0 ('Beginnings') built on Feb 12 2010 16:46:17
Writing library                  : libebml v0.7.9 + libmatroska v0.8.1

Video
ID                               : 1
Format                           : AVC
Format/Info                      : Advanced Video Codec
Format profile                   : High@L4.1
Format settings, CABAC           : Yes
Format settings, ReFrames        : 2 frames
Format settings, GOP             : M=1, N=16
Muxing mode                      : Container profile=Unknown@0.0
Codec ID                         : V_MPEG4/ISO/AVC
Duration                         : 1h 27mn
Bit rate mode                    : Variable
Bit rate                         : 14.6 Mbps
Maximum bit rate                 : 35.0 Mbps
Width                            : 1 920 pixels
Height                           : 1 080 pixels
Display aspect ratio             : 16:9
Frame rate                       : 23.976 fps
Color space                      : YUV
Chroma subsampling               : 4:2:0
Bit depth                        : 8 bits
Scan type                        : Progressive
Bits/(Pixel*Frame)               : 0.295
Stream size                      : 8.78 GiB (89%)
Writing library                  : x264 core 115 r2008 4c552d8
Encoding settings                : cabac=1 / ref=1 / deblock=1:0:0 / analyse=0x3:0x3 / me=dia / subme=1 / psy=1 / psy_rd=1.00:0.00 / mixed_ref=0 / me_range=16 / chroma_me=1 / trellis=0 / 8x8dct=1 / cqm=0 / deadzone=21,11 / fast_pskip=1 / chroma_qp_offset=0 / threads=3 / sliced_threads=0 / slices=4 / nr=0 / decimate=1 / interlaced=0 / bluray_compat=1 / constrained_intra=0 / bframes=3 / b_pyramid=0 / b_adapt=1 / b_bias=0 / direct=1 / weightb=1 / open_gop=0 / weightp=1 / keyint=24 / keyint_min=1 / scenecut=40 / intra_refresh=0 / rc_lookahead=0 / rc=abr / mbtree=0 / bitrate=14642 / ratetol=1.0 / qcomp=0.60 / qpmin=0 / qpmax=69 / qpstep=4 / vbv_maxrate=35000 / vbv_bufsize=30000 / nal_hrd=vbr / ip_ratio=1.10 / pb_ratio=1.10 / aq=1:1.00

Audio
ID                               : 2
Format                           : DTS
Format/Info                      : Digital Theater Systems
Codec ID                         : A_DTS
Duration                         : 1h 27mn
Bit rate mode                    : Constant
Bit rate                         : 1 510 Kbps
Channel(s)                       : 6 channels
Channel positions                : Front: L C R, Side: L R, LFE
Sampling rate                    : 48.0 KHz
Bit depth                        : 24 bits
Stream size                      : 944 MiB (9%)
Language                         : English

Text #1
ID                               : 3
Format                           : VobSub
Muxing mode                      : zlib
Codec ID                         : S_VOBSUB
Codec ID/Info                    : The same subtitle format used on DVDs
Language                         : English

Text #2
ID                               : 4
Format                           : VobSub
Muxing mode                      : zlib
Codec ID                         : S_VOBSUB
Codec ID/Info                    : The same subtitle format used on DVDs
Language                         : French

Text #3
ID                               : 5
Format                           : VobSub
Muxing mode                      : zlib
Codec ID                         : S_VOBSUB
Codec ID/Info                    : The same subtitle format used on DVDs
Title                            : Forced
Language                         : French

Text #4
ID                               : 6
Format                           : VobSub
Muxing mode                      : zlib
Codec ID                         : S_VOBSUB
Codec ID/Info                    : The same subtitle format used on DVDs
Language                         : Spanish

Text #5
ID                               : 7
Format                           : VobSub
Muxing mode                      : zlib
Codec ID                         : S_VOBSUB
Codec ID/Info                    : The same subtitle format used on DVDs
Title                            : Forced
Language                         : Spanish

Text #6
ID                               : 8
Format                           : UTF-8
Codec ID                         : S_TEXT/UTF8
Codec ID/Info                    : UTF-8 Plain Text
Language                         : Dutch

Menu
00:00:00.000                     : en:00:00:00.000
00:04:20.885                     : en:00:04:20.885
00:10:34.967                     : en:00:10:34.967
00:14:21.652                     : en:00:14:21.652
00:19:09.314                     : en:00:19:09.314
00:24:47.110                     : en:00:24:47.110
00:29:03.992                     : en:00:29:03.992
00:35:08.564                     : en:00:35:08.564
00:40:40.729                     : en:00:40:40.729
00:45:47.202                     : en:00:45:47.202
00:51:14.613                     : en:00:51:14.613
00:56:55.161                     : en:00:56:55.161
01:01:53.376                     : en:01:01:53.376
01:04:39.750                     : en:01:04:39.750
01:10:01.238                     : en:01:10:01.238
01:13:56.849                     : en:01:13:56.849

